<svg width="240" height="70" viewBox="0 0 240 70" fill="none" xmlns="http://www.w3.org/2000/svg">
<path fill-rule="evenodd" clip-rule="evenodd" d="M0 4.66667C0 2.08934 2.08934 0 4.66667 0H65.3333C67.9107 0 70 2.08934 70 4.66667V65.3333C70 67.9107 67.9107 70 65.3333 70H4.66667C2.08934 70 0 67.9107 0 65.3333V4.66667ZM21.3362 58.8284L26.6065 60.7466C27.3341 61.0114 27.7093 61.816 27.4445 62.5437C27.1796 63.2714 26.375 63.6466 25.6474 63.3817L20.3771 61.4635C19.6494 61.1987 19.2742 60.3941 19.5391 59.6664C19.8039 58.9387 20.6085 58.5635 21.3362 58.8284ZM30.4405 58.4118L19.9 54.5754C19.1723 54.3105 18.3677 54.6857 18.1029 55.4134C17.838 56.1411 18.2132 56.9456 18.9409 57.2105L29.4814 61.0469C30.209 61.3118 31.0136 60.9366 31.2785 60.2089C31.5433 59.4812 31.1681 58.6766 30.4405 58.4118ZM19.7813 50.8019L32.9569 55.5974C33.6846 55.8623 34.0598 56.6669 33.7949 57.3946C33.5301 58.1222 32.7255 58.4974 31.9978 58.2326L18.8222 53.437C18.0945 53.1722 17.7193 52.3676 17.9842 51.6399C18.249 50.9122 19.0536 50.5371 19.7813 50.8019ZM33.497 52.0638L21.639 47.7478C20.9113 47.4829 20.1067 47.8581 19.8418 48.5858C19.577 49.3135 19.9522 50.1181 20.6799 50.3829L32.5379 54.6989C33.2656 54.9637 34.0702 54.5885 34.335 53.8609C34.5999 53.1332 34.2247 52.3286 33.497 52.0638ZM33.078 51.1652L22.5375 47.3288C21.0822 46.7991 20.3318 45.1899 20.8615 43.7345L21.4443 42.1333C22.2745 39.8522 21.798 37.2881 21.0721 34.9717C20.381 32.7662 20.02 29.6483 21.3459 26.0056C23.9944 18.7288 32.0404 14.9769 39.3171 17.6255C46.5938 20.274 50.3457 28.3199 47.6972 35.5966C46.3713 39.2394 44.0907 41.3958 42.1435 42.6411C40.0985 43.9489 38.0853 45.6069 37.2551 47.888L36.6723 49.4892C36.1426 50.9445 34.5334 51.6949 33.078 51.1652ZM23.7246 25.7529C26.1606 20.5273 32.0256 17.7924 37.5945 19.2853C38.1555 19.4357 38.4367 20.0442 38.2381 20.59C38.0394 21.1357 37.4365 21.411 36.8728 21.2712C32.4005 20.162 27.7348 22.3376 25.7098 26.4766C25.4546 26.9983 24.8562 27.2832 24.3104 27.0845C23.7647 26.8859 23.4793 26.2793 23.7246 25.7529ZM18.3523 21.9318L13.0821 20.0135C12.3544 19.7487 11.5498 20.1239 11.2849 20.8516C11.0201 21.5792 11.3953 22.3838 12.1229 22.6487L17.3932 24.5669C18.1209 24.8317 18.9255 24.4566 19.1903 23.7289C19.4552 23.0012 19.08 22.1966 18.3523 21.9318ZM24.9095 9.2162L27.2798 14.2992C27.607 15.001 27.3034 15.8353 26.6016 16.1625C25.8998 16.4898 25.0655 16.1862 24.7383 15.4843L22.368 10.4013C22.0408 9.69951 22.3444 8.86527 23.0462 8.53801C23.748 8.21075 24.5823 8.51438 24.9095 9.2162ZM41.3564 7.92295L39.4382 13.1932C39.1733 13.9209 39.5485 14.7255 40.2762 14.9903C41.0038 15.2552 41.8084 14.88 42.0733 14.1523L43.9915 8.88206C44.2564 8.15439 43.8812 7.34979 43.1535 7.08494C42.4258 6.82009 41.6212 7.19528 41.3564 7.92295ZM50.6762 22.8149L55.7592 20.4446C56.461 20.1174 57.2953 20.421 57.6225 21.1228C57.9498 21.8246 57.6462 22.6589 56.9444 22.9861L51.8613 25.3564C51.1595 25.6836 50.3253 25.38 49.998 24.6782C49.6708 23.9764 49.9744 23.1421 50.6762 22.8149ZM57.8792 36.3184L52.609 34.4002C51.8813 34.1353 51.0767 34.5105 50.8118 35.2382C50.547 35.9658 50.9222 36.7704 51.6499 37.0353L56.9201 38.9535C57.6478 39.2184 58.4524 38.8432 58.7172 38.1155C58.9821 37.3878 58.6069 36.5832 57.8792 36.3184Z" fill="#2F8DE7"/>
<path d="M93.8409 42.2163C95.1124 42.2163 96.1431 43.247 96.1431 44.5185C96.1431 45.79 95.1124 46.8207 93.8409 46.8207H82.3333C80.8606 46.8207 79.6667 45.6268 79.6667 44.1541V19.446C79.6667 18.001 80.8381 16.8296 82.283 16.8296C83.728 16.8296 84.8994 18.001 84.8994 19.446V39.5496C84.8994 41.0224 86.0933 42.2163 87.5661 42.2163H93.8409Z" fill="#2F8DE7"/>
<path d="M109.664 40.372C109.664 38.9381 108.459 37.7698 107.04 37.9779C106.729 38.0235 106.437 38.0743 106.162 38.1304C105.216 38.3101 104.457 38.5452 103.886 38.8356C103.316 39.1259 102.907 39.4647 102.661 39.8519C102.415 40.239 102.291 40.6607 102.291 41.117C102.291 42.0158 102.538 42.6588 103.031 43.0459C103.536 43.4331 104.191 43.6267 104.995 43.6267C105.981 43.6267 106.83 43.44 107.544 43.0667C108.038 42.8031 108.523 42.4498 109 42.0067C109.449 41.5889 109.664 40.9856 109.664 40.372ZM99.5096 30.1452C99.0016 29.1726 99.1759 27.9581 100.064 27.3137C102.055 25.869 104.347 25.1467 106.941 25.1467C108.108 25.1467 109.152 25.3541 110.072 25.7689C110.993 26.1699 111.771 26.7368 112.407 27.4696C113.042 28.1886 113.522 29.0528 113.846 30.0622C114.183 31.0716 114.352 32.1778 114.352 33.3807V44.642C114.352 45.8453 113.377 46.8207 112.173 46.8207C111.719 46.8207 111.369 46.7516 111.123 46.6133C110.876 46.4612 110.682 46.164 110.539 45.7215C110.346 45.0268 109.479 44.7884 108.92 45.244C108.824 45.3224 108.728 45.3986 108.633 45.4726C108.153 45.8321 107.654 46.1363 107.135 46.3852C106.616 46.6341 106.059 46.8207 105.462 46.9452C104.879 47.0835 104.23 47.1526 103.517 47.1526C102.674 47.1526 101.896 47.0351 101.183 46.8C100.469 46.5511 99.8533 46.1847 99.3346 45.7007C98.8158 45.2168 98.4138 44.6153 98.1285 43.8963C97.8432 43.1773 97.7005 42.3407 97.7005 41.3867C97.7005 40.8474 97.7848 40.3151 97.9534 39.7896C98.122 39.2504 98.3943 38.7388 98.7704 38.2548C99.1595 37.7709 99.6588 37.3146 100.268 36.8859C100.878 36.4573 101.623 36.0839 102.505 35.7659C103.4 35.4479 104.438 35.1921 105.618 34.9985C106.465 34.8496 107.4 34.7434 108.421 34.6801C109.112 34.6371 109.664 34.0735 109.664 33.3807C109.664 31.9565 109.379 30.9057 108.808 30.2281C108.237 29.5368 107.414 29.1911 106.338 29.1911C105.559 29.1911 104.911 29.2879 104.392 29.4815C103.886 29.6751 103.439 29.8963 103.05 30.1452C102.661 30.3802 102.304 30.5946 101.98 30.7881C101.669 30.9817 101.319 31.0785 100.93 31.0785C100.592 31.0785 100.307 30.9886 100.074 30.8089C99.8403 30.6153 99.6523 30.3941 99.5096 30.1452Z" fill="#2F8DE7"/>
<path d="M132.586 25.5407C134.43 25.5407 135.69 27.404 135.004 29.1159L125.563 52.6696C125.421 53.0291 125.232 53.2988 124.999 53.4785C124.779 53.6721 124.435 53.7689 123.968 53.7689C122.28 53.7689 121.146 52.0363 121.822 50.4892L123.671 46.2586C123.96 45.5971 123.969 44.8467 123.695 44.1787L117.56 29.2193C116.84 27.4647 118.13 25.5407 120.027 25.5407H120.272C120.648 25.5407 120.94 25.6375 121.147 25.8311C121.368 26.0247 121.53 26.2459 121.634 26.4948L125.874 37.5289C126.017 37.9022 126.134 38.2756 126.225 38.6489C126.311 38.9597 126.766 38.9718 126.862 38.6639C126.863 38.6589 126.865 38.6539 126.867 38.6489C126.983 38.2617 127.113 37.8815 127.256 37.5081L131.263 26.4948C131.367 26.2183 131.535 25.9901 131.769 25.8104C132.015 25.6306 132.287 25.5407 132.586 25.5407Z" fill="#2F8DE7"/>
<path d="M149.726 42.4652C150.699 42.4652 151.516 42.3407 152.178 42.0919C152.839 41.843 153.364 41.5111 153.753 41.0963C154.155 40.6815 154.441 40.1975 154.609 39.6444C154.791 39.0914 154.881 38.5037 154.881 37.8815C154.881 37.2316 154.784 36.6509 154.59 36.1393C154.395 35.6138 154.09 35.1714 153.675 34.8119C153.26 34.4385 152.722 34.1551 152.061 33.9615C151.412 33.7679 150.628 33.6711 149.707 33.6711H147.102C145.629 33.6711 144.435 34.865 144.435 36.3378V39.7985C144.435 41.2713 145.629 42.4652 147.102 42.4652H149.726ZM147.102 21.1437C145.629 21.1437 144.435 22.3376 144.435 23.8104V27.1467C144.435 28.6194 145.629 29.8133 147.102 29.8133H148.598C150.388 29.8133 151.737 29.4677 152.644 28.7763C153.565 28.0849 154.026 26.9857 154.026 25.4785C154.026 23.916 153.611 22.803 152.781 22.1393C151.951 21.4756 150.654 21.1437 148.89 21.1437H147.102ZM148.89 16.8296C150.732 16.8296 152.307 17.0163 153.617 17.3896C154.927 17.763 155.997 18.2953 156.827 18.9867C157.67 19.678 158.286 20.5146 158.675 21.4963C159.064 22.478 159.258 23.5842 159.258 24.8148C159.258 25.52 159.161 26.1975 158.967 26.8474C158.772 27.4835 158.467 28.0849 158.052 28.6519C157.65 29.2049 157.131 29.7096 156.496 30.1659C155.886 30.6127 155.962 31.8348 156.634 32.1807C158.915 33.3552 160.056 35.297 160.056 38.0059C160.056 39.278 159.829 40.4533 159.375 41.5319C158.921 42.6104 158.26 43.5437 157.391 44.3319C156.522 45.1062 155.452 45.7146 154.181 46.157C152.91 46.5995 151.458 46.8207 149.824 46.8207H141.869C140.396 46.8207 139.203 45.6268 139.203 44.1541V19.4963C139.203 18.0235 140.396 16.8296 141.869 16.8296H148.89Z" fill="#2F8DE7"/>
<path d="M166.17 16C167.497 16 168.573 17.0756 168.573 18.4024V44.4183C168.573 45.7451 167.497 46.8207 166.17 46.8207C164.844 46.8207 163.768 45.7451 163.768 44.4183V18.4024C163.768 17.0756 164.844 16 166.17 16Z" fill="#2F8DE7"/>
<path d="M188.154 25.5407C189.481 25.5407 190.556 26.6163 190.556 27.9432V44.1541C190.556 45.6268 189.362 46.8207 187.89 46.8207H187.619C186.983 46.8207 186.581 46.5096 186.413 45.8874C186.276 45.1817 185.379 44.9197 184.818 45.3696C184.36 45.7373 183.88 46.062 183.378 46.3437C182.393 46.883 181.232 47.1526 179.896 47.1526C178.807 47.1526 177.841 46.959 176.998 46.5719C176.168 46.1709 175.467 45.6109 174.897 44.8918C174.326 44.1728 173.892 43.3225 173.593 42.3407C173.308 41.3452 173.165 40.2528 173.165 39.0637V27.9431C173.165 26.6163 174.241 25.5407 175.568 25.5407C176.895 25.5407 177.97 26.6163 177.97 27.9431V39.0637C177.97 40.3635 178.249 41.3728 178.807 42.0919C179.377 42.797 180.227 43.1496 181.355 43.1496C182.185 43.1496 182.963 42.956 183.689 42.5689C184.138 42.3213 184.571 42.0183 184.99 41.66C185.505 41.2194 185.751 40.5532 185.751 39.8755V27.9431C185.751 26.6163 186.827 25.5407 188.154 25.5407Z" fill="#2F8DE7"/>
<path d="M216.861 42.32C217.872 42.32 218.774 42.1402 219.565 41.7807C220.369 41.4212 221.043 40.9165 221.588 40.2667C222.132 39.6168 222.547 38.8286 222.833 37.9022C223.131 36.9758 223.28 35.9388 223.28 34.7911V19.446C223.28 18.001 224.452 16.8296 225.897 16.8296C227.342 16.8296 228.513 18.001 228.513 19.446V34.7911C228.513 36.5748 228.241 38.2272 227.696 39.7481C227.164 41.2553 226.393 42.562 225.381 43.6681C224.383 44.7605 223.163 45.6178 221.724 46.24C220.284 46.8484 218.663 47.1526 216.861 47.1526C215.045 47.1526 213.418 46.8484 211.978 46.24C210.539 45.6178 209.313 44.7605 208.302 43.6681C207.303 42.562 206.531 41.2553 205.987 39.7481C205.455 38.2272 205.189 36.5748 205.189 34.7911V19.446C205.189 18.001 206.361 16.8296 207.806 16.8296C209.251 16.8296 210.422 18.001 210.422 19.446V34.7704C210.422 35.918 210.565 36.9551 210.85 37.8815C211.148 38.8079 211.57 39.603 212.114 40.2667C212.672 40.9165 213.346 41.4212 214.137 41.7807C214.941 42.1402 215.849 42.32 216.861 42.32Z" fill="#2F8DE7"/>
<path d="M239.667 44.1946C239.667 45.645 238.491 46.8207 237.041 46.8207C235.59 46.8207 234.414 45.645 234.414 44.1946V19.4557C234.414 18.0054 235.59 16.8296 237.041 16.8296C238.491 16.8296 239.667 18.0054 239.667 19.4557V44.1946Z" fill="#2F8DE7"/>
</svg>
